<svg version="1.1" viewBox="0.0 0.0 302.4698162729659 100.0" fill="none" stroke="none" stroke-linecap="square" stroke-miterlimit="10" xmlns:xlink="http://www.w3.org/1999/xlink" xmlns="http://www.w3.org/2000/svg"><clipPath id="p.0"><path d="m0 0l302.46982 0l0 100.0l-302.46982 0l0 -100.0z" clip-rule="nonzero"/></clipPath><g clip-path="url(#p.0)"><path fill="#000000" fill-opacity="0.0" d="m0 0l302.46982 0l0 100.0l-302.46982 0z" fill-rule="evenodd"/><path fill="#ffffff" d="m10.6587925 5.5485563l282.74017 0l0 90.39371l-282.74017 0z" fill-rule="evenodd"/><path stroke="#ffffff" stroke-width="1.0" stroke-linejoin="round" stroke-linecap="butt" d="m10.6587925 5.5485563l282.74017 0l0 90.39371l-282.74017 0z" fill-rule="evenodd"/><path fill="#d9d9d9" d="m256.69028 63.060368l-25.385818 0l0 -31.95792l4.231064 -4.231056l21.154755 0z" fill-rule="evenodd"/><path fill="#adadad" d="m235.53552 26.871391l-0.8462219 3.3848438l-3.384842 0.8462124z" fill-rule="evenodd"/><path fill="#000000" fill-opacity="0.0" d="m235.53552 26.871391l-0.8462219 3.3848438l-3.384842 0.8462124l4.231064 -4.231056l21.154755 0l0 36.188976l-25.385818 0l0 -31.95792" fill-rule="evenodd"/><path stroke="#000000" stroke-width="1.0" stroke-linejoin="round" stroke-linecap="butt" d="m235.53552 26.871391l-0.8462219 3.3848438l-3.384842 0.8462124l4.231064 -4.231056l21.154755 0l0 36.188976l-25.385818 0l0 -31.95792" fill-rule="evenodd"/><path fill="#d9d9d9" d="m253.45145 59.816273l-25.385834 0l0 -31.95792l4.231064 -4.231056l21.15477 0z" fill-rule="evenodd"/><path fill="#adadad" d="m232.29668 23.627296l-0.8462219 3.3848438l-3.384842 0.8462124z" fill-rule="evenodd"/><path fill="#000000" fill-opacity="0.0" d="m232.29668 23.627296l-0.8462219 3.3848438l-3.384842 0.8462124l4.231064 -4.231056l21.15477 0l0 36.188976l-25.385834 0l0 -31.95792" fill-rule="evenodd"/><path stroke="#000000" stroke-width="1.0" stroke-linejoin="round" stroke-linecap="butt" d="m232.29668 23.627296l-0.8462219 3.3848438l-3.384842 0.8462124l4.231064 -4.231056l21.15477 0l0 36.188976l-25.385834 0l0 -31.95792" fill-rule="evenodd"/><path fill="#d9d9d9" d="m250.07349 20.929134l-25.385818 0l0 27.545864l8.643112 8.643112l16.742706 0z" fill-rule="evenodd"/><path fill="#adadad" d="m233.33078 57.11811l-1.7286224 -6.9144897l-6.9144897 -1.7286224z" fill-rule="evenodd"/><path fill="#000000" fill-opacity="0.0" d="m233.33078 57.11811l-1.7286224 -6.9144897l-6.9144897 -1.7286224l8.643112 8.643112l16.742706 0l0 -36.188976l-25.385818 0l0 27.545864" fill-rule="evenodd"/><path stroke="#000000" stroke-width="1.0" stroke-linejoin="round" stroke-linecap="butt" d="m233.33078 57.11811l-1.7286224 -6.9144897l-6.9144897 -1.7286224l8.643112 8.643112l16.742706 0l0 -36.188976l-25.385818 0l0 27.545864" fill-rule="evenodd"/><path fill="#d9d9d9" d="m59.209972 23.900263l-25.385826 0l0 27.545862l8.643112 8.643112l16.742714 0z" fill-rule="evenodd"/><path fill="#adadad" d="m42.46726 60.089237l-1.7286224 -6.9144897l-6.9144897 -1.7286224z" fill-rule="evenodd"/><path fill="#000000" fill-opacity="0.0" d="m42.46726 60.089237l-1.7286224 -6.9144897l-6.9144897 -1.7286224l8.643112 8.643112l16.742714 0l0 -36.188972l-25.385826 0l0 27.545862" fill-rule="evenodd"/><path stroke="#000000" stroke-width="1.0" stroke-linejoin="round" stroke-linecap="butt" d="m42.46726 60.089237l-1.7286224 -6.9144897l-6.9144897 -1.7286224l8.643112 8.643112l16.742714 0l0 -36.188972l-25.385826 0l0 27.545862" fill-rule="evenodd"/><path fill="#cfe2f3" d="m86.95801 36.04987l109.87401 0l0 -5.9448833l11.8897705 11.889765l-11.8897705 11.889763l0 -5.9448814l-109.87401 0z" fill-rule="evenodd"/><path stroke="#000000" stroke-width="1.0" stroke-linejoin="round" stroke-linecap="butt" d="m86.95801 36.04987l109.87401 0l0 -5.9448833l11.8897705 11.889765l-11.8897705 11.889763l0 -5.9448814l-109.87401 0z" fill-rule="evenodd"/><path fill="#000000" d="m96.39551 44.39475l0 -3.453125l0.53125 0l0 0.484375q0.15625 -0.25 0.421875 -0.40625q0.28125 -0.15625 0.625 -0.15625q0.375 0 0.625 0.15625q0.25 0.15625 0.34375 0.453125q0.40625 -0.609375 1.0625 -0.609375q0.515625 0 0.78125 0.296875q0.28125 0.28125 0.28125 0.859375l0 2.375l-0.578125 0l0 -2.171875q0 -0.359375 -0.0625 -0.5q-0.046875 -0.15625 -0.203125 -0.25q-0.140625 -0.09375 -0.34375 -0.09375q-0.359375 0 -0.609375 0.25q-0.234375 0.234375 -0.234375 0.765625l0 2.0l-0.59375 0l0 -2.25q0 -0.375 -0.140625 -0.5625q-0.140625 -0.203125 -0.46875 -0.203125q-0.25 0 -0.453125 0.125q-0.203125 0.125 -0.296875 0.375q-0.09375 0.25 -0.09375 0.71875l0 1.796875l-0.59375 0zm5.3259583 -1.71875q0 -0.96875 0.53125 -1.421875q0.453125 -0.390625 1.09375 -0.390625q0.703125 0 1.15625 0.46875q0.453125 0.46875 0.453125 1.28125q0 0.671875 -0.203125 1.0625q-0.1875 0.375 -0.578125 0.59375q-0.375 0.203125 -0.828125 0.203125q-0.734375 0 -1.1875 -0.453125q-0.4375 -0.46875 -0.4375 -1.34375zm0.609375 0q0 0.65625 0.28125 0.984375q0.296875 0.328125 0.734375 0.328125q0.4375 0 0.71875 -0.328125q0.296875 -0.328125 0.296875 -1.015625q0 -0.640625 -0.296875 -0.96875q-0.296875 -0.328125 -0.71875 -0.328125q-0.4375 0 -0.734375 0.328125q-0.28125 0.328125 -0.28125 1.0zm3.311264 1.71875l0 -3.453125l0.515625 0l0 0.53125q0.203125 -0.375 0.375 -0.484375q0.171875 -0.125 0.375 -0.125q0.296875 0 0.609375 0.1875l-0.203125 0.546875q-0.21875 -0.125 -0.4375 -0.125q-0.1875 0 -0.34375 0.125q-0.140625 0.109375 -0.21875 0.3125q-0.09375 0.3125 -0.09375 0.671875l0 1.8125l-0.578125 0zm2.2165833 1.328125l0 -4.78125l0.53125 0l0 0.453125q0.1875 -0.265625 0.421875 -0.390625q0.25 -0.140625 0.578125 -0.140625q0.453125 0 0.78125 0.234375q0.34375 0.21875 0.515625 0.640625q0.171875 0.40625 0.171875 0.90625q0 0.53125 -0.1875 0.953125q-0.1875 0.421875 -0.5625 0.65625q-0.359375 0.21875 -0.75 0.21875q-0.296875 0 -0.53125 -0.125q-0.234375 -0.125 -0.375 -0.3125l0 1.6875l-0.59375 0zm0.53125 -3.03125q0 0.65625 0.265625 0.984375q0.28125 0.3125 0.65625 0.3125q0.390625 0 0.671875 -0.328125q0.28125 -0.328125 0.28125 -1.015625q0 -0.671875 -0.28125 -1.0q-0.265625 -0.328125 -0.640625 -0.328125q-0.375 0 -0.671875 0.359375q-0.28125 0.34375 -0.28125 1.015625zm3.170639 1.703125l0 -4.765625l0.59375 0l0 1.703125q0.40625 -0.46875 1.03125 -0.46875q0.375 0 0.65625 0.15625q0.28125 0.140625 0.40625 0.421875q0.125 0.265625 0.125 0.765625l0 2.1875l-0.578125 0l0 -2.1875q0 -0.4375 -0.203125 -0.640625q-0.1875 -0.203125 -0.53125 -0.203125q-0.265625 0 -0.5 0.140625q-0.21875 0.140625 -0.3125 0.375q-0.09375 0.21875 -0.09375 0.625l0 1.890625l-0.59375 0zm3.701889 -4.09375l0 -0.671875l0.59375 0l0 0.671875l-0.59375 0zm0 4.09375l0 -3.453125l0.59375 0l0 3.453125l-0.59375 0zm1.4788055 0l0 -3.453125l0.515625 0l0 0.53125q0.203125 -0.375 0.375 -0.484375q0.171875 -0.125 0.375 -0.125q0.296875 0 0.609375 0.1875l-0.203125 0.546875q-0.21875 -0.125 -0.4375 -0.125q-0.1875 0 -0.34375 0.125q-0.140625 0.109375 -0.21875 0.3125q-0.09375 0.3125 -0.09375 0.671875l0 1.8125l-0.578125 0zm1.9978333 -1.4375l0 -0.578125l1.796875 0l0 0.578125l-1.796875 0zm4.7947083 0.328125l0.609375 0.078125q-0.140625 0.53125 -0.53125 0.828125q-0.390625 0.28125 -0.984375 0.28125q-0.765625 0 -1.203125 -0.46875q-0.4375 -0.46875 -0.4375 -1.3125q0 -0.859375 0.4375 -1.34375q0.453125 -0.484375 1.171875 -0.484375q0.6875 0 1.125 0.46875q0.4375 0.46875 0.4375 1.328125q0 0.046875 0 0.15625l-2.578125 0q0.03125 0.578125 0.3125 0.875q0.296875 0.296875 0.734375 0.296875q0.328125 0 0.546875 -0.15625q0.234375 -0.171875 0.359375 -0.546875zm-1.921875 -0.953125l1.9375 0q-0.046875 -0.4375 -0.21875 -0.640625q-0.28125 -0.34375 -0.734375 -0.34375q-0.40625 0 -0.6875 0.265625q-0.265625 0.265625 -0.296875 0.71875zm3.248764 2.0625l0 -4.765625l0.59375 0l0 4.765625l-0.59375 0zm1.4944305 0l0 -3.453125l0.53125 0l0 0.484375q0.15625 -0.25 0.421875 -0.40625q0.28125 -0.15625 0.625 -0.15625q0.375 0 0.625 0.15625q0.25 0.15625 0.34375 0.453125q0.40625 -0.609375 1.0625 -0.609375q0.515625 0 0.78125 0.296875q0.28125 0.28125 0.28125 0.859375l0 2.375l-0.578125 0l0 -2.171875q0 -0.359375 -0.0625 -0.5q-0.046875 -0.15625 -0.203125 -0.25q-0.140625 -0.09375 -0.34375 -0.09375q-0.359375 0 -0.609375 0.25q-0.234375 0.234375 -0.234375 0.765625l0 2.0l-0.59375 0l0 -2.25q0 -0.375 -0.140625 -0.5625q-0.140625 -0.203125 -0.46875 -0.203125q-0.25 0 -0.453125 0.125q-0.203125 0.125 -0.296875 0.375q-0.09375 0.25 -0.09375 0.71875l0 1.796875l-0.59375 0zm7.2846527 0.28125l0.578125 0.09375q0.03125 0.265625 0.1875 0.375q0.21875 0.171875 0.59375 0.171875q0.40625 0 0.625 -0.171875q0.234375 -0.15625 0.3125 -0.453125q0.046875 -0.171875 0.03125 -0.75q-0.375 0.453125 -0.953125 0.453125q-0.703125 0 -1.09375 -0.515625q-0.390625 -0.515625 -0.390625 -1.234375q0 -0.484375 0.171875 -0.90625q0.1875 -0.421875 0.515625 -0.640625q0.34375 -0.234375 0.796875 -0.234375q0.625 0 1.015625 0.5l0 -0.421875l0.53125 0l0 2.984375q0 0.8125 -0.171875 1.140625q-0.15625 0.34375 -0.515625 0.53125q-0.34375 0.203125 -0.859375 0.203125q-0.625 0 -1.015625 -0.28125q-0.375 -0.28125 -0.359375 -0.84375zm0.484375 -2.0625q0 0.671875 0.265625 0.984375q0.28125 0.3125 0.6875 0.3125q0.40625 0 0.671875 -0.3125q0.265625 -0.3125 0.265625 -0.96875q0 -0.640625 -0.28125 -0.953125q-0.28125 -0.328125 -0.671875 -0.328125q-0.390625 0 -0.671875 0.328125q-0.265625 0.3125 -0.265625 0.9375zm5.686264 0.671875l0.609375 0.078125q-0.140625 0.53125 -0.53125 0.828125q-0.390625 0.28125 -0.984375 0.28125q-0.765625 0 -1.203125 -0.46875q-0.4375 -0.46875 -0.4375 -1.3125q0 -0.859375 0.4375 -1.34375q0.453125 -0.484375 1.171875 -0.484375q0.6875 0 1.125 0.46875q0.4375 0.46875 0.4375 1.328125q0 0.046875 0 0.15625l-2.578125 0q0.03125 0.578125 0.3125 0.875q0.296875 0.296875 0.734375 0.296875q0.328125 0 0.546875 -0.15625q0.234375 -0.171875 0.359375 -0.546875zm-1.921875 -0.953125l1.9375 0q-0.046875 -0.4375 -0.21875 -0.640625q-0.28125 -0.34375 -0.734375 -0.34375q-0.40625 0 -0.6875 0.265625q-0.265625 0.265625 -0.296875 0.71875zm3.264389 2.0625l0 -3.453125l0.53125 0l0 0.5q0.375 -0.578125 1.09375 -0.578125q0.3125 0 0.578125 0.109375q0.265625 0.109375 0.390625 0.296875q0.125 0.1875 0.1875 0.4375q0.03125 0.15625 0.03125 0.5625l0 2.125l-0.59375 0l0 -2.09375q0 -0.359375 -0.078125 -0.53125q-0.0625 -0.1875 -0.234375 -0.28125q-0.171875 -0.109375 -0.40625 -0.109375q-0.375 0 -0.640625 0.234375q-0.265625 0.234375 -0.265625 0.890625l0 1.890625l-0.59375 0zm5.3324585 -1.4375l0 -0.578125l1.796875 0l0 0.578125l-1.796875 0zm3.7165833 0.921875l0.078125 0.515625q-0.25 0.046875 -0.4375 0.046875q-0.3125 0 -0.5 -0.09375q-0.171875 -0.109375 -0.25 -0.265625q-0.0625 -0.171875 -0.0625 -0.703125l0 -1.984375l-0.4375 0l0 -0.453125l0.4375 0l0 -0.859375l0.578125 -0.34375l0 1.203125l0.59375 0l0 0.453125l-0.59375 0l0 2.015625q0 0.25 0.03125 0.328125q0.03125 0.078125 0.09375 0.125q0.078125 0.03125 0.203125 0.03125q0.109375 0 0.265625 -0.015625zm2.276764 -1.015625l0.59375 -0.046875q0.046875 0.359375 0.203125 0.59375q0.15625 0.21875 0.46875 0.359375q0.328125 0.140625 0.734375 0.140625q0.359375 0 0.640625 -0.109375q0.28125 -0.109375 0.40625 -0.296875q0.140625 -0.1875 0.140625 -0.40625q0 -0.21875 -0.140625 -0.390625q-0.125 -0.171875 -0.421875 -0.28125q-0.1875 -0.078125 -0.84375 -0.234375q-0.65625 -0.15625 -0.921875 -0.296875q-0.34375 -0.171875 -0.515625 -0.4375q-0.15625 -0.265625 -0.15625 -0.59375q0 -0.359375 0.203125 -0.671875q0.203125 -0.3125 0.59375 -0.46875q0.390625 -0.171875 0.875 -0.171875q0.53125 0 0.9375 0.171875q0.40625 0.171875 0.625 0.5q0.21875 0.328125 0.234375 0.75l-0.609375 0.046875q-0.046875 -0.453125 -0.328125 -0.6875q-0.28125 -0.234375 -0.828125 -0.234375q-0.578125 0 -0.84375 0.21875q-0.25 0.203125 -0.25 0.5q0 0.265625 0.1875 0.421875q0.171875 0.171875 0.9375 0.34375q0.78125 0.171875 1.0625 0.296875q0.421875 0.203125 0.609375 0.5q0.203125 0.28125 0.203125 0.671875q0 0.375 -0.21875 0.71875q-0.21875 0.328125 -0.625 0.515625q-0.40625 0.1875 -0.921875 0.1875q-0.640625 0 -1.078125 -0.1875q-0.4375 -0.1875 -0.6875 -0.5625q-0.25 -0.375 -0.265625 -0.859375zm4.5802917 1.53125l0 -3.453125l0.53125 0l0 0.5q0.375 -0.578125 1.09375 -0.578125q0.3125 0 0.578125 0.109375q0.265625 0.109375 0.390625 0.296875q0.125 0.1875 0.1875 0.4375q0.03125 0.15625 0.03125 0.5625l0 2.125l-0.59375 0l0 -2.09375q0 -0.359375 -0.078125 -0.53125q-0.0625 -0.1875 -0.234375 -0.28125q-0.171875 -0.109375 -0.40625 -0.109375q-0.375 0 -0.640625 0.234375q-0.265625 0.234375 -0.265625 0.890625l0 1.890625l-0.59375 0zm3.483139 -1.71875q0 -0.96875 0.53125 -1.421875q0.453125 -0.390625 1.09375 -0.390625q0.703125 0 1.15625 0.46875q0.453125 0.46875 0.453125 1.28125q0 0.671875 -0.203125 1.0625q-0.1875 0.375 -0.578125 0.59375q-0.375 0.203125 -0.828125 0.203125q-0.734375 0 -1.1875 -0.453125q-0.4375 -0.46875 -0.4375 -1.34375zm0.609375 0q0 0.65625 0.28125 0.984375q0.296875 0.328125 0.734375 0.328125q0.4375 0 0.71875 -0.328125q0.296875 -0.328125 0.296875 -1.015625q0 -0.640625 -0.296875 -0.96875q-0.296875 -0.328125 -0.71875 -0.328125q-0.4375 0 -0.734375 0.328125q-0.28125 0.328125 -0.28125 1.0zm3.951889 1.71875l-1.0625 -3.453125l0.609375 0l0.546875 2.0l0.203125 0.734375q0.015625 -0.0625 0.1875 -0.71875l0.546875 -2.015625l0.59375 0l0.515625 2.0l0.171875 0.65625l0.203125 -0.65625l0.59375 -2.0l0.5625 0l-1.078125 3.453125l-0.609375 0l-0.546875 -2.0625l-0.125 -0.59375l-0.703125 2.65625l-0.609375 0zm4.1663055 1.328125l0 -4.78125l0.53125 0l0 0.453125q0.1875 -0.265625 0.421875 -0.390625q0.25 -0.140625 0.578125 -0.140625q0.453125 0 0.78125 0.234375q0.34375 0.21875 0.515625 0.640625q0.171875 0.40625 0.171875 0.90625q0 0.53125 -0.1875 0.953125q-0.1875 0.421875 -0.5625 0.65625q-0.359375 0.21875 -0.75 0.21875q-0.296875 0 -0.53125 -0.125q-0.234375 -0.125 -0.375 -0.3125l0 1.6875l-0.59375 0zm0.53125 -3.03125q0 0.65625 0.265625 0.984375q0.28125 0.3125 0.65625 0.3125q0.390625 0 0.671875 -0.328125q0.28125 -0.328125 0.28125 -1.015625q0 -0.671875 -0.28125 -1.0q-0.265625 -0.328125 -0.640625 -0.328125q-0.375 0 -0.671875 0.359375q-0.28125 0.34375 -0.28125 1.015625zm5.420639 1.28125q-0.328125 0.265625 -0.625 0.390625q-0.296875 0.109375 -0.640625 0.109375q-0.578125 0 -0.890625 -0.28125q-0.296875 -0.28125 -0.296875 -0.703125q0 -0.25 0.109375 -0.453125q0.125 -0.21875 0.3125 -0.34375q0.1875 -0.140625 0.421875 -0.203125q0.171875 -0.046875 0.515625 -0.078125q0.71875 -0.09375 1.046875 -0.203125q0 -0.125 0 -0.15625q0 -0.359375 -0.15625 -0.5q-0.234375 -0.203125 -0.671875 -0.203125q-0.40625 0 -0.609375 0.15625q-0.203125 0.140625 -0.296875 0.5l-0.5625 -0.078125q0.078125 -0.359375 0.25 -0.578125q0.1875 -0.234375 0.515625 -0.359375q0.34375 -0.125 0.78125 -0.125q0.453125 0 0.71875 0.109375q0.28125 0.09375 0.40625 0.265625q0.140625 0.15625 0.1875 0.390625q0.03125 0.15625 0.03125 0.546875l0 0.765625q0 0.828125 0.03125 1.046875q0.046875 0.203125 0.15625 0.40625l-0.609375 0q-0.09375 -0.1875 -0.125 -0.421875zm-0.046875 -1.3125q-0.3125 0.125 -0.953125 0.21875q-0.359375 0.0625 -0.515625 0.125q-0.140625 0.0625 -0.234375 0.1875q-0.078125 0.125 -0.078125 0.28125q0 0.234375 0.171875 0.390625q0.1875 0.15625 0.53125 0.15625q0.328125 0 0.59375 -0.140625q0.265625 -0.15625 0.390625 -0.421875q0.09375 -0.1875 0.09375 -0.578125l0 -0.21875zm1.498764 1.734375l0 -3.453125l0.515625 0l0 0.53125q0.203125 -0.375 0.375 -0.484375q0.171875 -0.125 0.375 -0.125q0.296875 0 0.609375 0.1875l-0.203125 0.546875q-0.21875 -0.125 -0.4375 -0.125q-0.1875 0 -0.34375 0.125q-0.140625 0.109375 -0.21875 0.3125q-0.09375 0.3125 -0.09375 0.671875l0 1.8125l-0.578125 0zm2.2165833 0l0 -4.765625l0.59375 0l0 2.71875l1.375 -1.40625l0.765625 0l-1.328125 1.28125l1.453125 2.171875l-0.71875 0l-1.140625 -1.765625l-0.40625 0.390625l0 1.375l-0.59375 0z" fill-rule="nonzero"/><path fill="#000000" fill-opacity="0.0" d="m20.028872 33.695538l52.97638 0l0 12.913387l-52.97638 0z" fill-rule="evenodd"/><path fill="#000000" d="m35.46438 38.815536l0 -2.765625l0.421875 0l0 0.390625q0.140625 -0.203125 0.34375 -0.328125q0.21875 -0.125 0.5 -0.125q0.3125 0 0.5 0.125q0.203125 0.125 0.28125 0.359375q0.328125 -0.484375 0.84375 -0.484375q0.421875 0 0.640625 0.234375q0.21875 0.21875 0.21875 0.703125l0 1.890625l-0.46875 0l0 -1.734375q0 -0.28125 -0.046875 -0.40625q-0.046875 -0.125 -0.171875 -0.203125q-0.109375 -0.078125 -0.265625 -0.078125q-0.296875 0 -0.484375 0.203125q-0.1875 0.1875 -0.1875 0.609375l0 1.609375l-0.46875 0l0 -1.796875q0 -0.3125 -0.125 -0.46875q-0.109375 -0.15625 -0.375 -0.15625q-0.1875 0 -0.359375 0.109375q-0.171875 0.09375 -0.25 0.296875q-0.078125 0.203125 -0.078125 0.578125l0 1.4375l-0.46875 0zm4.2664948 -1.375q0 -0.78125 0.4375 -1.140625q0.34375 -0.3125 0.859375 -0.3125q0.578125 0 0.9375 0.375q0.359375 0.375 0.359375 1.03125q0 0.53125 -0.15625 0.84375q-0.15625 0.296875 -0.46875 0.46875q-0.3125 0.171875 -0.671875 0.171875q-0.578125 0 -0.9375 -0.375q-0.359375 -0.375 -0.359375 -1.0625zm0.484375 0q0 0.53125 0.234375 0.796875q0.234375 0.25 0.578125 0.25q0.359375 0 0.578125 -0.265625q0.234375 -0.265625 0.234375 -0.796875q0 -0.515625 -0.234375 -0.78125q-0.234375 -0.265625 -0.578125 -0.265625q-0.34375 0 -0.578125 0.265625q-0.234375 0.265625 -0.234375 0.796875zm2.6507568 1.375l0 -2.765625l0.421875 0l0 0.421875q0.15625 -0.296875 0.296875 -0.390625q0.140625 -0.09375 0.296875 -0.09375q0.25 0 0.484375 0.15625l-0.15625 0.4375q-0.171875 -0.109375 -0.34375 -0.109375q-0.15625 0 -0.28125 0.09375q-0.125 0.09375 -0.171875 0.25q-0.078125 0.25 -0.078125 0.546875l0 1.453125l-0.46875 0zm1.7743073 1.0625l0 -3.828125l0.4375 0l0 0.359375q0.140625 -0.203125 0.328125 -0.3125q0.203125 -0.109375 0.46875 -0.109375q0.359375 0 0.625 0.1875q0.265625 0.171875 0.40625 0.515625q0.140625 0.328125 0.140625 0.71875q0 0.421875 -0.15625 0.765625q-0.140625 0.34375 -0.4375 0.53125q-0.296875 0.171875 -0.609375 0.171875q-0.234375 0 -0.421875 -0.09375q-0.1875 -0.109375 -0.3125 -0.25l0 1.34375l-0.46875 0zm0.4375 -2.421875q0 0.53125 0.203125 0.78125q0.21875 0.25 0.53125 0.25q0.3125 0 0.53125 -0.25q0.21875 -0.265625 0.21875 -0.828125q0 -0.53125 -0.21875 -0.78125q-0.203125 -0.265625 -0.515625 -0.265625q-0.296875 0 -0.53125 0.28125q-0.21875 0.265625 -0.21875 0.8125zm2.5257568 1.359375l0 -3.8125l0.46875 0l0 1.359375q0.328125 -0.375 0.828125 -0.375q0.3125 0 0.53125 0.125q0.234375 0.125 0.328125 0.34375q0.109375 0.203125 0.109375 0.609375l0 1.75l-0.46875 0l0 -1.75q0 -0.359375 -0.15625 -0.515625q-0.15625 -0.15625 -0.4375 -0.15625q-0.203125 0 -0.390625 0.109375q-0.1875 0.109375 -0.265625 0.296875q-0.078125 0.171875 -0.078125 0.5l0 1.515625l-0.46875 0zm2.9788818 -3.28125l0 -0.53125l0.46875 0l0 0.53125l-0.46875 0zm0 3.28125l0 -2.765625l0.46875 0l0 2.765625l-0.46875 0zm1.1681213 0l0 -2.765625l0.421875 0l0 0.421875q0.15625 -0.296875 0.296875 -0.390625q0.140625 -0.09375 0.296875 -0.09375q0.25 0 0.484375 0.15625l-0.15625 0.4375q-0.171875 -0.109375 -0.34375 -0.109375q-0.15625 0 -0.28125 0.09375q-0.125 0.09375 -0.171875 0.25q-0.078125 0.25 -0.078125 0.546875l0 1.453125l-0.46875 0zm1.6024323 -1.140625l0 -0.46875l1.4375 0l0 0.46875l-1.4375 0zm1.9618073 -2.140625l0 -0.53125l0.46875 0l0 0.53125l-0.46875 0zm0 3.28125l0 -2.765625l0.46875 0l0 2.765625l-0.46875 0zm1.1681213 0l0 -2.765625l0.421875 0l0 0.421875q0.15625 -0.296875 0.296875 -0.390625q0.140625 -0.09375 0.296875 -0.09375q0.25 0 0.484375 0.15625l-0.15625 0.4375q-0.171875 -0.109375 -0.34375 -0.109375q-0.15625 0 -0.28125 0.09375q-0.125 0.09375 -0.171875 0.25q-0.078125 0.25 -0.078125 0.546875l0 1.453125l-0.46875 0z" fill-rule="nonzero"/><path fill="#000000" d="m41.374107 45.215538l0 -0.53125l0.53125 0l0 0.53125l-0.53125 0zm1.3397064 -3.265625l0 -0.546875l0.46875 0l0 0.546875l-0.46875 0zm-0.59375 4.34375l0.09375 -0.40625q0.140625 0.03125 0.21875 0.03125q0.140625 0 0.203125 -0.09375q0.078125 -0.09375 0.078125 -0.46875l0 -2.90625l0.46875 0l0 2.921875q0 0.5 -0.125 0.703125q-0.171875 0.265625 -0.5625 0.265625q-0.1875 0 -0.375 -0.046875zm1.5899963 -1.90625l0.46875 -0.0625q0.046875 0.265625 0.21875 0.421875q0.171875 0.140625 0.5 0.140625q0.328125 0 0.484375 -0.125q0.15625 -0.125 0.15625 -0.3125q0 -0.15625 -0.140625 -0.25q-0.09375 -0.0625 -0.484375 -0.15625q-0.515625 -0.125 -0.71875 -0.21875q-0.1875 -0.09375 -0.296875 -0.265625q-0.109375 -0.171875 -0.109375 -0.375q0 -0.1875 0.078125 -0.34375q0.09375 -0.15625 0.25 -0.265625q0.109375 -0.078125 0.296875 -0.125q0.1875 -0.0625 0.40625 -0.0625q0.3125 0 0.5625 0.09375q0.25 0.09375 0.359375 0.265625q0.125 0.15625 0.171875 0.421875l-0.46875 0.0625q-0.03125 -0.21875 -0.1875 -0.328125q-0.140625 -0.125 -0.40625 -0.125q-0.328125 0 -0.46875 0.109375q-0.140625 0.09375 -0.140625 0.25q0 0.078125 0.0625 0.15625q0.0625 0.078125 0.1875 0.125q0.0625 0.03125 0.40625 0.125q0.5 0.125 0.6875 0.21875q0.203125 0.078125 0.3125 0.25q0.109375 0.15625 0.109375 0.390625q0 0.234375 -0.140625 0.453125q-0.125 0.203125 -0.390625 0.3125q-0.25 0.109375 -0.578125 0.109375q-0.53125 0 -0.828125 -0.21875q-0.28125 -0.234375 -0.359375 -0.671875zm2.6796875 -0.546875q0 -0.78125 0.4375 -1.140625q0.34375 -0.3125 0.859375 -0.3125q0.578125 0 0.9375 0.375q0.359375 0.375 0.359375 1.03125q0 0.53125 -0.15625 0.84375q-0.15625 0.296875 -0.46875 0.46875q-0.3125 0.171875 -0.671875 0.171875q-0.578125 0 -0.9375 -0.375q-0.359375 -0.375 -0.359375 -1.0625zm0.484375 0q0 0.53125 0.234375 0.796875q0.234375 0.25 0.578125 0.25q0.359375 0 0.578125 -0.265625q0.234375 -0.265625 0.234375 -0.796875q0 -0.515625 -0.234375 -0.78125q-0.234375 -0.265625 -0.578125 -0.265625q-0.34375 0 -0.578125 0.265625q-0.234375 0.265625 -0.234375 0.796875zm2.6507568 1.375l0 -2.765625l0.421875 0l0 0.390625q0.3125 -0.453125 0.890625 -0.453125q0.25 0 0.453125 0.09375q0.21875 0.09375 0.3125 0.234375q0.109375 0.140625 0.15625 0.34375q0.015625 0.125 0.015625 0.453125l0 1.703125l-0.46875 0l0 -1.6875q0 -0.28125 -0.0625 -0.421875q-0.046875 -0.140625 -0.1875 -0.21875q-0.140625 -0.09375 -0.328125 -0.09375q-0.296875 0 -0.515625 0.1875q-0.21875 0.1875 -0.21875 0.71875l0 1.515625l-0.46875 0z" fill-rule="nonzero"/><path fill="#000000" fill-opacity="0.0" d="m210.8924 32.367455l52.97638 0l0 6.4566917l-52.97638 0z" fill-rule="evenodd"/><path fill="#000000" d="m230.9056 37.487453l0 -0.53125l0.53125 0l0 0.53125l-0.53125 0zm1.1522064 -0.828125l0.46875 -0.0625q0.046875 0.265625 0.21875 0.421875q0.171875 0.140625 0.5 0.140625q0.328125 0 0.484375 -0.125q0.15625 -0.125 0.15625 -0.3125q0 -0.15625 -0.140625 -0.25q-0.09375 -0.0625 -0.484375 -0.15625q-0.515625 -0.125 -0.71875 -0.21875q-0.1875 -0.09375 -0.296875 -0.265625q-0.109375 -0.171875 -0.109375 -0.375q0 -0.1875 0.078125 -0.34375q0.09375 -0.15625 0.25 -0.265625q0.109375 -0.078125 0.296875 -0.125q0.1875 -0.0625 0.40625 -0.0625q0.3125 0 0.5625 0.09375q0.25 0.09375 0.359375 0.265625q0.125 0.15625 0.171875 0.421875l-0.46875 0.0625q-0.03125 -0.21875 -0.1875 -0.328125q-0.140625 -0.125 -0.40625 -0.125q-0.328125 0 -0.46875 0.109375q-0.140625 0.09375 -0.140625 0.25q0 0.078125 0.0625 0.15625q0.0625 0.078125 0.1875 0.125q0.0625 0.03125 0.40625 0.125q0.5 0.125 0.6875 0.21875q0.203125 0.078125 0.3125 0.25q0.109375 0.15625 0.109375 0.390625q0 0.234375 -0.140625 0.453125q-0.125 0.203125 -0.390625 0.3125q-0.25 0.109375 -0.578125 0.109375q-0.53125 0 -0.828125 -0.21875q-0.28125 -0.234375 -0.359375 -0.671875zm4.6640625 -0.1875l0.453125 0.0625q-0.0625 0.484375 -0.375 0.75q-0.3125 0.265625 -0.765625 0.265625q-0.578125 0 -0.921875 -0.359375q-0.34375 -0.375 -0.34375 -1.078125q0 -0.4375 0.140625 -0.765625q0.15625 -0.34375 0.453125 -0.515625q0.3125 -0.171875 0.671875 -0.171875q0.453125 0 0.734375 0.234375q0.28125 0.21875 0.375 0.640625l-0.46875 0.078125q-0.0625 -0.28125 -0.234375 -0.421875q-0.15625 -0.140625 -0.390625 -0.140625q-0.359375 0 -0.578125 0.25q-0.21875 0.25 -0.21875 0.796875q0 0.5625 0.203125 0.8125q0.21875 0.25 0.5625 0.25q0.28125 0 0.46875 -0.15625q0.1875 -0.171875 0.234375 -0.53125zm2.6640625 0.671875q-0.265625 0.21875 -0.515625 0.3125q-0.234375 0.09375 -0.5 0.09375q-0.453125 0 -0.703125 -0.21875q-0.25 -0.21875 -0.25 -0.578125q0 -0.203125 0.09375 -0.359375q0.09375 -0.171875 0.234375 -0.265625q0.15625 -0.109375 0.34375 -0.15625q0.140625 -0.046875 0.421875 -0.078125q0.5625 -0.0625 0.828125 -0.15625q0.015625 -0.09375 0.015625 -0.125q0 -0.28125 -0.140625 -0.40625q-0.171875 -0.15625 -0.53125 -0.15625q-0.328125 0 -0.484375 0.125q-0.15625 0.109375 -0.234375 0.40625l-0.46875 -0.0625q0.0625 -0.296875 0.203125 -0.46875q0.15625 -0.1875 0.421875 -0.28125q0.265625 -0.109375 0.625 -0.109375q0.359375 0 0.578125 0.09375q0.21875 0.078125 0.328125 0.203125q0.109375 0.125 0.140625 0.3125q0.03125 0.125 0.03125 0.4375l0 0.625q0 0.65625 0.03125 0.828125q0.03125 0.171875 0.109375 0.328125l-0.484375 0q-0.078125 -0.140625 -0.09375 -0.34375zm-0.046875 -1.046875q-0.25 0.109375 -0.765625 0.1875q-0.28125 0.03125 -0.40625 0.09375q-0.109375 0.046875 -0.1875 0.15625q-0.0625 0.09375 -0.0625 0.21875q0 0.1875 0.140625 0.3125q0.140625 0.125 0.421875 0.125q0.265625 0 0.46875 -0.125q0.21875 -0.125 0.328125 -0.328125q0.0625 -0.15625 0.0625 -0.46875l0 -0.171875zm1.1976318 1.390625l0 -3.8125l0.46875 0l0 3.8125l-0.46875 0zm2.9962463 -0.34375q-0.265625 0.21875 -0.515625 0.3125q-0.234375 0.09375 -0.5 0.09375q-0.453125 0 -0.703125 -0.21875q-0.25 -0.21875 -0.25 -0.578125q0 -0.203125 0.09375 -0.359375q0.09375 -0.171875 0.234375 -0.265625q0.15625 -0.109375 0.34375 -0.15625q0.140625 -0.046875 0.421875 -0.078125q0.5625 -0.0625 0.828125 -0.15625q0.015625 -0.09375 0.015625 -0.125q0 -0.28125 -0.140625 -0.40625q-0.171875 -0.15625 -0.53125 -0.15625q-0.328125 0 -0.484375 0.125q-0.15625 0.109375 -0.234375 0.40625l-0.46875 -0.0625q0.0625 -0.296875 0.203125 -0.46875q0.15625 -0.1875 0.421875 -0.28125q0.265625 -0.109375 0.625 -0.109375q0.359375 0 0.578125 0.09375q0.21875 0.078125 0.328125 0.203125q0.109375 0.125 0.140625 0.3125q0.03125 0.125 0.03125 0.4375l0 0.625q0 0.65625 0.03125 0.828125q0.03125 0.171875 0.109375 0.328125l-0.484375 0q-0.078125 -0.140625 -0.09375 -0.34375zm-0.046875 -1.046875q-0.25 0.109375 -0.765625 0.1875q-0.28125 0.03125 -0.40625 0.09375q-0.109375 0.046875 -0.1875 0.15625q-0.0625 0.09375 -0.0625 0.21875q0 0.1875 0.140625 0.3125q0.140625 0.125 0.421875 0.125q0.265625 0 0.46875 -0.125q0.21875 -0.125 0.328125 -0.328125q0.0625 -0.15625 0.0625 -0.46875l0 -0.171875z" fill-rule="nonzero"/><path fill="#000000" fill-opacity="0.0" d="m21.622047 63.060368l63.11811 0l0 29.070866l-63.11811 0z" fill-rule="evenodd"/><path fill="#000000" d="m31.215797 79.740364l0 -5.734375l1.140625 0l1.359375 4.0625q0.1875 0.5625 0.265625 0.84375q0.109375 -0.3125 0.3125 -0.921875l1.375 -3.984375l1.015625 0l0 5.734375l-0.734375 0l0 -4.796875l-1.65625 4.796875l-0.6875 0l-1.65625 -4.875l0 4.875l-0.734375 0zm6.3359375 -2.078125q0 -1.15625 0.640625 -1.703125q0.53125 -0.46875 1.3125 -0.46875q0.84375 0 1.390625 0.5625q0.546875 0.5625 0.546875 1.546875q0 0.8125 -0.25 1.265625q-0.234375 0.453125 -0.703125 0.71875q-0.453125 0.25 -0.984375 0.25q-0.875 0 -1.421875 -0.5625q-0.53125 -0.5625 -0.53125 -1.609375zm0.71875 0q0 0.796875 0.34375 1.203125q0.359375 0.390625 0.890625 0.390625q0.515625 0 0.859375 -0.390625q0.359375 -0.40625 0.359375 -1.21875q0 -0.78125 -0.359375 -1.171875q-0.34375 -0.390625 -0.859375 -0.390625q-0.53125 0 -0.890625 0.390625q-0.34375 0.390625 -0.34375 1.1875zm3.9804688 2.078125l0 -4.15625l0.640625 0l0 0.640625q0.234375 -0.453125 0.4375 -0.59375q0.21875 -0.140625 0.453125 -0.140625q0.359375 0 0.734375 0.234375l-0.25 0.65625q-0.25 -0.15625 -0.515625 -0.15625q-0.234375 0 -0.421875 0.140625q-0.171875 0.140625 -0.25 0.375q-0.125 0.375 -0.125 0.828125l0 2.171875l-0.703125 0zm2.6796875 1.59375l0 -5.75l0.640625 0l0 0.546875q0.21875 -0.3125 0.5 -0.46875q0.296875 -0.171875 0.703125 -0.171875q0.53125 0 0.9375 0.28125q0.40625 0.265625 0.609375 0.765625q0.203125 0.5 0.203125 1.09375q0 0.640625 -0.234375 1.15625q-0.21875 0.5 -0.65625 0.78125q-0.4375 0.265625 -0.90625 0.265625q-0.359375 0 -0.640625 -0.140625q-0.28125 -0.15625 -0.453125 -0.390625l0 2.03125l-0.703125 0zm0.640625 -3.640625q0 0.796875 0.3125 1.1875q0.328125 0.375 0.796875 0.375q0.46875 0 0.796875 -0.390625q0.328125 -0.40625 0.328125 -1.234375q0 -0.796875 -0.328125 -1.1875q-0.3125 -0.390625 -0.765625 -0.390625q-0.453125 0 -0.796875 0.421875q-0.34375 0.40625 -0.34375 1.21875zm3.8085938 2.046875l0 -5.734375l0.703125 0l0 2.0625q0.484375 -0.578125 1.234375 -0.578125q0.46875 0 0.796875 0.1875q0.34375 0.1875 0.484375 0.515625q0.15625 0.3125 0.15625 0.921875l0 2.625l-0.703125 0l0 -2.625q0 -0.53125 -0.234375 -0.765625q-0.21875 -0.25 -0.640625 -0.25q-0.3125 0 -0.59375 0.171875q-0.265625 0.15625 -0.390625 0.4375q-0.109375 0.265625 -0.109375 0.765625l0 2.265625l-0.703125 0zm4.4492188 -4.921875l0 -0.8125l0.703125 0l0 0.8125l-0.703125 0zm0 4.921875l0 -4.15625l0.703125 0l0 4.15625l-0.703125 0zm1.7617188 0l0 -4.15625l0.640625 0l0 0.640625q0.234375 -0.453125 0.4375 -0.59375q0.21875 -0.140625 0.453125 -0.140625q0.359375 0 0.734375 0.234375l-0.25 0.65625q-0.25 -0.15625 -0.515625 -0.15625q-0.234375 0 -0.421875 0.140625q-0.171875 0.140625 -0.25 0.375q-0.125 0.375 -0.125 0.828125l0 2.171875l-0.703125 0zm4.9023438 -4.921875l0 -0.8125l0.703125 0l0 0.8125l-0.703125 0zm0 4.921875l0 -4.15625l0.703125 0l0 4.15625l-0.703125 0zm1.7617188 0l0 -4.15625l0.640625 0l0 0.640625q0.234375 -0.453125 0.4375 -0.59375q0.21875 -0.140625 0.453125 -0.140625q0.359375 0 0.734375 0.234375l-0.25 0.65625q-0.25 -0.15625 -0.515625 -0.15625q-0.234375 0 -0.421875 0.140625q-0.171875 0.140625 -0.25 0.375q-0.125 0.375 -0.125 0.828125l0 2.171875l-0.703125 0z" fill-rule="nonzero"/><path fill="#000000" fill-opacity="0.0" d="m208.72179 58.209972l84.66142 0l0 38.771656l-84.66142 0z" fill-rule="evenodd"/><path fill="#000000" d="m218.08116 73.04623l0.71875 -0.0625q0.046875 0.4375 0.234375 0.71875q0.1875 0.265625 0.578125 0.4375q0.390625 0.171875 0.875 0.171875q0.4375 0 0.765625 -0.125q0.328125 -0.140625 0.484375 -0.359375q0.171875 -0.234375 0.171875 -0.5q0 -0.265625 -0.15625 -0.46875q-0.15625 -0.203125 -0.515625 -0.328125q-0.234375 -0.09375 -1.03125 -0.28125q-0.78125 -0.1875 -1.09375 -0.359375q-0.40625 -0.21875 -0.609375 -0.53125q-0.203125 -0.328125 -0.203125 -0.71875q0 -0.4375 0.25 -0.8125q0.25 -0.375 0.71875 -0.5625q0.46875 -0.203125 1.046875 -0.203125q0.640625 0 1.125 0.203125q0.484375 0.203125 0.75 0.609375q0.265625 0.390625 0.28125 0.90625l-0.734375 0.046875q-0.046875 -0.546875 -0.390625 -0.8125q-0.34375 -0.28125 -1.0 -0.28125q-0.6875 0 -1.0 0.25q-0.3125 0.25 -0.3125 0.609375q0 0.3125 0.21875 0.5q0.21875 0.203125 1.140625 0.421875q0.921875 0.203125 1.265625 0.359375q0.5 0.234375 0.734375 0.59375q0.25 0.34375 0.25 0.796875q0 0.46875 -0.265625 0.875q-0.265625 0.390625 -0.75 0.625q-0.484375 0.21875 -1.109375 0.21875q-0.765625 0 -1.296875 -0.21875q-0.53125 -0.234375 -0.828125 -0.6875q-0.296875 -0.453125 -0.3125 -1.03125zm8.2109375 0.328125l0.6875 0.078125q-0.109375 0.71875 -0.578125 1.125q-0.46875 0.40625 -1.140625 0.40625q-0.859375 0 -1.375 -0.546875q-0.515625 -0.5625 -0.515625 -1.609375q0 -0.671875 0.21875 -1.171875q0.234375 -0.5 0.6875 -0.75q0.453125 -0.265625 0.984375 -0.265625q0.671875 0 1.09375 0.34375q0.4375 0.34375 0.5625 0.96875l-0.6875 0.109375q-0.09375 -0.421875 -0.34375 -0.625q-0.25 -0.21875 -0.59375 -0.21875q-0.53125 0 -0.875 0.390625q-0.328125 0.375 -0.328125 1.203125q0 0.828125 0.3125 1.21875q0.328125 0.375 0.84375 0.375q0.421875 0 0.6875 -0.25q0.28125 -0.265625 0.359375 -0.78125zm4.0 1.0q-0.390625 0.328125 -0.75 0.46875q-0.359375 0.140625 -0.78125 0.140625q-0.671875 0 -1.046875 -0.328125q-0.359375 -0.34375 -0.359375 -0.859375q0 -0.3125 0.125 -0.5625q0.140625 -0.25 0.359375 -0.390625q0.234375 -0.15625 0.515625 -0.234375q0.203125 -0.0625 0.625 -0.109375q0.859375 -0.109375 1.25 -0.25q0.015625 -0.140625 0.015625 -0.171875q0 -0.4375 -0.203125 -0.609375q-0.265625 -0.234375 -0.796875 -0.234375q-0.5 0 -0.734375 0.171875q-0.234375 0.171875 -0.359375 0.609375l-0.6875 -0.09375q0.09375 -0.4375 0.3125 -0.703125q0.21875 -0.28125 0.625 -0.421875q0.40625 -0.15625 0.9375 -0.15625q0.53125 0 0.859375 0.125q0.34375 0.125 0.5 0.328125q0.15625 0.1875 0.21875 0.46875q0.03125 0.1875 0.03125 0.65625l0 0.9375q0 0.96875 0.046875 1.234375q0.046875 0.265625 0.171875 0.5l-0.734375 0q-0.109375 -0.21875 -0.140625 -0.515625zm-0.0625 -1.5625q-0.375 0.15625 -1.140625 0.265625q-0.4375 0.0625 -0.625 0.140625q-0.171875 0.078125 -0.265625 0.234375q-0.09375 0.140625 -0.09375 0.328125q0 0.28125 0.203125 0.46875q0.21875 0.1875 0.625 0.1875q0.40625 0 0.71875 -0.171875q0.328125 -0.1875 0.46875 -0.5q0.109375 -0.234375 0.109375 -0.703125l0 -0.25zm1.7929688 2.078125l0 -5.734375l0.703125 0l0 5.734375l-0.703125 0zm4.4960938 -0.515625q-0.390625 0.328125 -0.75 0.46875q-0.359375 0.140625 -0.78125 0.140625q-0.671875 0 -1.046875 -0.328125q-0.359375 -0.34375 -0.359375 -0.859375q0 -0.3125 0.125 -0.5625q0.140625 -0.25 0.359375 -0.390625q0.234375 -0.15625 0.515625 -0.234375q0.203125 -0.0625 0.625 -0.109375q0.859375 -0.109375 1.25 -0.25q0.015625 -0.140625 0.015625 -0.171875q0 -0.4375 -0.203125 -0.609375q-0.265625 -0.234375 -0.796875 -0.234375q-0.5 0 -0.734375 0.171875q-0.234375 0.171875 -0.359375 0.609375l-0.6875 -0.09375q0.09375 -0.4375 0.3125 -0.703125q0.21875 -0.28125 0.625 -0.421875q0.40625 -0.15625 0.9375 -0.15625q0.53125 0 0.859375 0.125q0.34375 0.125 0.5 0.328125q0.15625 0.1875 0.21875 0.46875q0.03125 0.1875 0.03125 0.65625l0 0.9375q0 0.96875 0.046875 1.234375q0.046875 0.265625 0.171875 0.5l-0.734375 0q-0.109375 -0.21875 -0.140625 -0.515625zm-0.0625 -1.5625q-0.375 0.15625 -1.140625 0.265625q-0.4375 0.0625 -0.625 0.140625q-0.171875 0.078125 -0.265625 0.234375q-0.09375 0.140625 -0.09375 0.328125q0 0.28125 0.203125 0.46875q0.21875 0.1875 0.625 0.1875q0.40625 0 0.71875 -0.171875q0.328125 -0.1875 0.46875 -0.5q0.109375 -0.234375 0.109375 -0.703125l0 -0.25zm6.75 2.078125l0 -0.609375q-0.484375 0.703125 -1.3125 0.703125q-0.375 0 -0.703125 -0.140625q-0.3125 -0.140625 -0.46875 -0.34375q-0.140625 -0.21875 -0.203125 -0.53125q-0.046875 -0.203125 -0.046875 -0.65625l0 -2.578125l0.703125 0l0 2.3125q0 0.546875 0.046875 0.734375q0.0625 0.28125 0.265625 0.4375q0.21875 0.15625 0.546875 0.15625q0.3125 0 0.578125 -0.15625q0.28125 -0.171875 0.390625 -0.4375q0.125 -0.28125 0.125 -0.8125l0 -2.234375l0.703125 0l0 4.15625l-0.625 0zm1.4492188 -1.234375l0.6875 -0.109375q0.0625 0.40625 0.328125 0.640625q0.265625 0.21875 0.75 0.21875q0.484375 0 0.71875 -0.1875q0.234375 -0.203125 0.234375 -0.46875q0 -0.25 -0.203125 -0.375q-0.140625 -0.09375 -0.71875 -0.25q-0.78125 -0.1875 -1.078125 -0.328125q-0.296875 -0.140625 -0.453125 -0.390625q-0.15625 -0.265625 -0.15625 -0.5625q0 -0.28125 0.125 -0.515625q0.140625 -0.234375 0.359375 -0.390625q0.15625 -0.125 0.4375 -0.203125q0.28125 -0.09375 0.609375 -0.09375q0.484375 0 0.859375 0.140625q0.375 0.140625 0.546875 0.390625q0.171875 0.234375 0.234375 0.640625l-0.6875 0.09375q-0.046875 -0.328125 -0.265625 -0.5q-0.21875 -0.1875 -0.640625 -0.1875q-0.484375 0 -0.6875 0.171875q-0.203125 0.15625 -0.203125 0.375q0 0.125 0.078125 0.234375q0.09375 0.125 0.28125 0.1875q0.09375 0.046875 0.609375 0.1875q0.75 0.203125 1.046875 0.328125q0.296875 0.125 0.453125 0.375q0.171875 0.234375 0.171875 0.59375q0 0.34375 -0.203125 0.65625q-0.203125 0.3125 -0.59375 0.484375q-0.375 0.171875 -0.875 0.171875q-0.796875 0 -1.234375 -0.328125q-0.421875 -0.34375 -0.53125 -1.0zm4.28125 -3.6875l0 -0.8125l0.703125 0l0 0.8125l-0.703125 0zm0 4.921875l0 -4.15625l0.703125 0l0 4.15625l-0.703125 0zm1.7773438 0l0 -4.15625l0.625 0l0 0.59375q0.46875 -0.6875 1.328125 -0.6875q0.375 0 0.6875 0.140625q0.3125 0.140625 0.46875 0.359375q0.15625 0.21875 0.21875 0.515625q0.046875 0.1875 0.046875 0.6875l0 2.546875l-0.703125 0l0 -2.53125q0 -0.421875 -0.09375 -0.625q-0.078125 -0.21875 -0.296875 -0.34375q-0.203125 -0.140625 -0.484375 -0.140625q-0.4375 0 -0.765625 0.296875q-0.328125 0.28125 -0.328125 1.078125l0 2.265625l-0.703125 0zm4.3242188 0.34375l0.671875 0.109375q0.046875 0.3125 0.25 0.453125q0.24998474 0.203125 0.70310974 0.203125q0.5 0 0.765625 -0.203125q0.265625 -0.1875 0.359375 -0.546875q0.046875 -0.21875 0.046875 -0.90625q-0.46875 0.546875 -1.15625 0.546875q-0.84373474 0 -1.3124847 -0.609375q-0.46875 -0.625 -0.46875 -1.484375q0 -0.59375 0.203125 -1.09375q0.21875 -0.515625 0.625 -0.78125q0.40623474 -0.28125 0.96873474 -0.28125q0.734375 0 1.203125 0.59375l0 -0.5l0.65625 0l0 3.59375q0 0.96875 -0.203125 1.375q-0.203125 0.40625 -0.625 0.640625q-0.421875 0.234375 -1.046875 0.234375q-0.74998474 0 -1.2031097 -0.34375q-0.453125 -0.328125 -0.4375 -1.0zm0.578125 -2.5q0 0.828125 0.3125 1.203125q0.32810974 0.375 0.82810974 0.375q0.484375 0 0.8125 -0.375q0.328125 -0.375 0.328125 -1.171875q0 -0.765625 -0.34375 -1.140625q-0.34375 -0.390625 -0.8125 -0.390625q-0.46875 0 -0.79685974 0.375q-0.328125 0.375 -0.328125 1.125z" fill-rule="nonzero"/><path fill="#000000" d="m218.08116 82.646225l0.71875 -0.0625q0.046875 0.4375 0.234375 0.71875q0.1875 0.265625 0.578125 0.4375q0.390625 0.171875 0.875 0.171875q0.4375 0 0.765625 -0.125q0.328125 -0.140625 0.484375 -0.359375q0.171875 -0.234375 0.171875 -0.5q0 -0.265625 -0.15625 -0.46875q-0.15625 -0.203125 -0.515625 -0.328125q-0.234375 -0.09375 -1.03125 -0.28125q-0.78125 -0.1875 -1.09375 -0.359375q-0.40625 -0.21875 -0.609375 -0.53125q-0.203125 -0.328125 -0.203125 -0.71875q0 -0.4375 0.25 -0.8125q0.25 -0.375 0.71875 -0.5625q0.46875 -0.203125 1.046875 -0.203125q0.640625 0 1.125 0.203125q0.484375 0.203125 0.75 0.609375q0.265625 0.390625 0.28125 0.90625l-0.734375 0.046875q-0.046875 -0.546875 -0.390625 -0.8125q-0.34375 -0.28125 -1.0 -0.28125q-0.6875 0 -1.0 0.25q-0.3125 0.25 -0.3125 0.609375q0 0.3125 0.21875 0.5q0.21875 0.203125 1.140625 0.421875q0.921875 0.203125 1.265625 0.359375q0.5 0.234375 0.734375 0.59375q0.25 0.34375 0.25 0.796875q0 0.46875 -0.265625 0.875q-0.265625 0.390625 -0.75 0.625q-0.484375 0.21875 -1.109375 0.21875q-0.765625 0 -1.296875 -0.21875q-0.53125 -0.234375 -0.828125 -0.6875q-0.296875 -0.453125 -0.3125 -1.03125zm5.5078125 1.84375l0 -4.15625l0.625 0l0 0.59375q0.46875 -0.6875 1.328125 -0.6875q0.375 0 0.6875 0.140625q0.3125 0.140625 0.46875 0.359375q0.15625 0.21875 0.21875 0.515625q0.046875 0.1875 0.046875 0.6875l0 2.546875l-0.703125 0l0 -2.53125q0 -0.421875 -0.09375 -0.625q-0.078125 -0.21875 -0.296875 -0.34375q-0.203125 -0.140625 -0.484375 -0.140625q-0.4375 0 -0.765625 0.296875q-0.328125 0.28125 -0.328125 1.078125l0 2.265625l-0.703125 0zm4.1835938 -2.078125q0 -1.15625 0.640625 -1.703125q0.53125 -0.46875 1.3125 -0.46875q0.84375 0 1.390625 0.5625q0.546875 0.5625 0.546875 1.546875q0 0.8125 -0.25 1.265625q-0.234375 0.453125 -0.703125 0.71875q-0.453125 0.25 -0.984375 0.25q-0.875 0 -1.421875 -0.5625q-0.53125 -0.5625 -0.53125 -1.609375zm0.71875 0q0 0.796875 0.34375 1.203125q0.359375 0.390625 0.890625 0.390625q0.515625 0 0.859375 -0.390625q0.359375 -0.40625 0.359375 -1.21875q0 -0.78125 -0.359375 -1.171875q-0.34375 -0.390625 -0.859375 -0.390625q-0.53125 0 -0.890625 0.390625q-0.34375 0.390625 -0.34375 1.1875zm4.7617188 2.078125l-1.265625 -4.15625l0.71875 0l0.65625 2.40625l0.25 0.890625q0.015625 -0.078125 0.21875 -0.859375l0.65625 -2.4375l0.71875 0l0.625 2.40625l0.203125 0.796875l0.25 -0.796875l0.703125 -2.40625l0.6875 0l-1.296875 4.15625l-0.734375 0l-0.65625 -2.484375l-0.15625 -0.703125l-0.84375 3.1875l-0.734375 0zm5.0117188 1.59375l0 -5.75l0.640625 0l0 0.546875q0.21875 -0.3125 0.5 -0.46875q0.296875 -0.171875 0.703125 -0.171875q0.53125 0 0.9375 0.28125q0.40625 0.265625 0.609375 0.765625q0.203125 0.5 0.203125 1.09375q0 0.640625 -0.234375 1.15625q-0.21875 0.5 -0.65625 0.78125q-0.4375 0.265625 -0.90625 0.265625q-0.359375 0 -0.640625 -0.140625q-0.28125 -0.15625 -0.453125 -0.390625l0 2.03125l-0.703125 0zm0.640625 -3.640625q0 0.796875 0.3125 1.1875q0.328125 0.375 0.796875 0.375q0.46875 0 0.796875 -0.390625q0.328125 -0.40625 0.328125 -1.234375q0 -0.796875 -0.328125 -1.1875q-0.3125 -0.390625 -0.765625 -0.390625q-0.453125 0 -0.796875 0.421875q-0.34375 0.40625 -0.34375 1.21875zm6.5117188 1.53125q-0.390625 0.328125 -0.75 0.46875q-0.359375 0.140625 -0.78125 0.140625q-0.671875 0 -1.046875 -0.328125q-0.359375 -0.34375 -0.359375 -0.859375q0 -0.3125 0.125 -0.5625q0.140625 -0.25 0.359375 -0.390625q0.234375 -0.15625 0.515625 -0.234375q0.203125 -0.0625 0.625 -0.109375q0.859375 -0.109375 1.25 -0.25q0.015625 -0.140625 0.015625 -0.171875q0 -0.4375 -0.203125 -0.609375q-0.265625 -0.234375 -0.796875 -0.234375q-0.5 0 -0.734375 0.171875q-0.234375 0.171875 -0.359375 0.609375l-0.6875 -0.09375q0.09375 -0.4375 0.3125 -0.703125q0.21875 -0.28125 0.625 -0.421875q0.40625 -0.15625 0.9375 -0.15625q0.53125 0 0.859375 0.125q0.34375 0.125 0.5 0.328125q0.15625 0.1875 0.21875 0.46875q0.03125 0.1875 0.03125 0.65625l0 0.9375q0 0.96875 0.046875 1.234375q0.046875 0.265625 0.171875 0.5l-0.734375 0q-0.109375 -0.21875 -0.140625 -0.515625zm-0.0625 -1.5625q-0.375 0.15625 -1.140625 0.265625q-0.4375 0.0625 -0.625 0.140625q-0.171875 0.078125 -0.265625 0.234375q-0.09375 0.140625 -0.09375 0.328125q0 0.28125 0.203125 0.46875q0.21875 0.1875 0.625 0.1875q0.40625 0 0.71875 -0.171875q0.328125 -0.1875 0.46875 -0.5q0.109375 -0.234375 0.109375 -0.703125l0 -0.25zm1.7929688 2.078125l0 -4.15625l0.640625 0l0 0.640625q0.234375 -0.453125 0.4375 -0.59375q0.21875 -0.140625 0.453125 -0.140625q0.359375 0 0.734375 0.234375l-0.25 0.65625q-0.25 -0.15625 -0.515625 -0.15625q-0.234375 0 -0.421875 0.140625q-0.171875 0.140625 -0.25 0.375q-0.125 0.375 -0.125 0.828125l0 2.171875l-0.703125 0zm2.6796875 0l0 -5.734375l0.703125 0l0 3.265625l1.671875 -1.6875l0.90625 0l-1.59375 1.546875l1.75 2.609375l-0.859375 0l-1.375 -2.125l-0.5 0.484375l0 1.640625l-0.703125 0zm5.234375 0l2.2031097 -5.734375l0.8125 0l2.34375 5.734375l-0.859375 0l-0.671875 -1.734375l-2.390625 0l-0.62498474 1.734375l-0.8125 0zm1.6562347 -2.359375l1.9375 0l-0.59375 -1.578125q-0.265625 -0.71875 -0.40625 -1.1875q-0.109375 0.546875 -0.3125 1.09375l-0.625 1.671875zm4.3203125 2.359375l0 -5.734375l2.15625 0q0.5625 0 0.875 0.0625q0.421875 0.0625 0.703125 0.265625q0.28125 0.203125 0.453125 0.5625q0.171875 0.34375 0.171875 0.765625q0 0.734375 -0.46875 1.25q-0.453125 0.5 -1.671875 0.5l-1.46875 0l0 2.328125l-0.75 0zm0.75 -3.0l1.484375 0q0.734375 0 1.03125 -0.265625q0.3125 -0.28125 0.3125 -0.78125q0 -0.359375 -0.1875 -0.609375q-0.171875 -0.265625 -0.46875 -0.34375q-0.1875 -0.046875 -0.703125 -0.046875l-1.46875 0l0 2.046875zm4.7109375 3.0l0 -5.734375l0.75 0l0 5.734375l-0.75 0z" fill-rule="nonzero"/></g></svg>