<?xml version="1.0" encoding="utf-8"?>
<!-- Generator: Adobe Illustrator 24.2.3, SVG Export Plug-In . SVG Version: 6.00 Build 0)  -->
<svg version="1.1" id="Layer_1" xmlns="http://www.w3.org/2000/svg" x="0px" y="0px"
     viewBox="0 0 503.6 569.9" style="enable-background:new 0 0 503.6 569.9;" xml:space="preserve">
<style type="text/css">
	.st0{fill:#FFFFFF;}
</style>
<g>
	<polygon class="st0" points="395.2,210.2 395.2,337.9 500.9,276.9 500.9,149.2 395.2,210.2 	"/>
	<polygon class="st0" points="108.4,365.2 108.4,237.5 2.8,298.5 2.8,426.2 108.4,365.2 	"/>
	<polygon class="st0" points="256.4,122 367,185.8 367,63.8 256.4,0 256.4,122 	"/>
	<polygon class="st0" points="247.2,447.9 136.6,384 136.6,506 247.2,569.9 247.2,447.9 	"/>
	<polygon class="st0" points="113,199.5 223.6,135.6 117.9,74.6 7.4,138.5 113,199.5 	"/>
	<polygon class="st0" points="390.6,370.4 280.1,434.2 385.7,495.2 496.3,431.4 390.6,370.4 	"/>
	<path class="st0" d="M425.6,163l56.9-32.9l-56.9-32.9V163L425.6,163z M251.8,413.5l113.3-64.3V220.7l-113.3-64.3l-113.3,64.3v128.5
		L251.8,413.5L251.8,413.5z M228.3,284.9c0,13.7-11.1,24.9-24.9,24.9c-13.7,0-24.9-11.1-24.9-24.9c0-13.7,11.1-24.9,24.9-24.9
		C217.2,260.1,228.3,271.2,228.3,284.9L228.3,284.9z M275.3,284.9c0-13.7,11.1-24.9,24.9-24.9c13.7,0,24.9,11.1,24.9,24.9
		c0,13.7-11.1,24.9-24.9,24.9C286.4,309.8,275.3,298.7,275.3,284.9L275.3,284.9z M230.8,72.1l0-65.8l-56.9,32.9L230.8,72.1
		L230.8,72.1z M21,445.2L78,478.1v-65.8L21,445.2L21,445.2z M0,229.6l56.9-32.9L0,163.8V229.6L0,229.6z M329.8,530.7l-56.9-32.9
		v65.8L329.8,530.7L329.8,530.7z M503.6,340.3l-56.9,32.9l56.9,32.9V340.3L503.6,340.3z"/>
</g>
</svg>
