<?xml version="1.0" encoding="utf-8"?>
<!-- Generator: Adobe Illustrator 24.2.3, SVG Export Plug-In . SVG Version: 6.00 Build 0)  -->
<svg version="1.1" id="Layer_1" xmlns="http://www.w3.org/2000/svg" xmlns:xlink="http://www.w3.org/1999/xlink"
	 x="0px" y="0px" width="200px"
	 viewBox="0 0 602.4 184.4" style="enable-background:new 0 0 602.4 184.4;" xml:space="preserve">
<style type="text/css">
	.st0{fill:#F26A21;}
	.st1{fill:#16A2DC;}
</style>
<g>
	<path class="st0" d="M548.8,117.1h11.2v-54h-11.2V117.1L548.8,117.1z M554.6,56c3.9,0,7.1-3.1,7.1-7.2c0-4-3.2-7.2-7.1-7.2
		c-4,0-7.2,3.1-7.2,7.2C547.4,52.9,550.5,56,554.6,56L554.6,56z M586.1,88.7c0-11.5,5.1-14.9,13.4-14.9h2.9V62.3
		c-7.7,0-13.1,3.3-16.3,8.7v-7.8h-11.2v54h11.2V88.7L586.1,88.7z"/>
	<path class="st1" d="M391.3,88.7c0-11.5,5.1-14.9,13.4-14.9h2.9V62.3c-7.7,0-13.1,3.3-16.3,8.7v-7.8h-11.2v54h11.2V88.7L391.3,88.7
		z M429.2,71.1v-7.9h-11.2v79.6h11.2v-33.5c3.6,4.2,10,8.7,18.9,8.7c14.3,0,25.6-11.5,25.6-28.1s-11.2-27.6-25.6-27.6
		C439.2,62.3,432.6,66.6,429.2,71.1L429.2,71.1z M462.2,89.9c0,11.7-8.1,18.4-16.6,18.4c-8.4,0-16.5-6.6-16.5-18.2
		c0-11.6,8.1-18.1,16.5-18.1C454.1,72,462.2,78.2,462.2,89.9L462.2,89.9z M484.8,117.1h11.2V87c0-9.9,5.4-15,13.7-15
		c8.2,0,13.6,5.1,13.6,15v30.2h11.1V85.3c0-15.1-9.5-23-21.6-23c-7,0-13.1,2.6-16.9,7.2V44.7h-11.2V117.1L484.8,117.1z"/>
	<path class="st1" d="M368.9,90.1c0-16.9-12.2-27.8-27.7-27.8c-15.5,0-27.7,10.9-27.7,27.8c0,16.9,11.7,27.9,27.2,27.9
		C356.3,118,368.9,107,368.9,90.1L368.9,90.1z M324.9,90.1c0-12.2,7.6-18.1,16.1-18.1c8.4,0,16.4,5.9,16.4,18.1
		c0,12.2-8.3,18.2-16.7,18.2C332.2,108.3,324.9,102.3,324.9,90.1L324.9,90.1z"/>
	<path class="st1" d="M291.7,117.1h11.1V85.3c0-15.1-9.7-23-22.4-23c-7.9,0-15.6,4.1-18.9,10.7c-3.7-7.1-10.9-10.7-19.5-10.7
		c-6.5,0-12.4,2.6-16.1,7.1v-6.2h-11.2v54h11.2V87c0-9.9,5.4-15,13.7-15c8.2,0,13.6,5.1,13.6,15v30.2h11.1V87c0-9.9,5.4-15,13.7-15
		c8.2,0,13.6,5.1,13.6,15V117.1L291.7,117.1z"/>
	<polygon class="st1" points="127.9,68 127.9,109.3 162.1,89.6 162.1,48.3 127.9,68 	"/>
	<polygon class="st1" points="35.1,118.2 35.1,76.8 0.9,96.6 0.9,137.9 35.1,118.2 	"/>
	<polygon class="st1" points="83,39.5 118.7,60.1 118.7,20.7 83,0 83,39.5 	"/>
	<polygon class="st1" points="80,144.9 44.2,124.3 44.2,163.7 80,184.4 80,144.9 	"/>
	<polygon class="st1" points="36.6,64.5 72.3,43.9 38.2,24.2 2.4,44.8 36.6,64.5 	"/>
	<polygon class="st1" points="126.4,119.9 90.6,140.5 124.8,160.2 160.6,139.6 126.4,119.9 	"/>
	<path class="st0" d="M137.7,52.8l18.4-10.6l-18.4-10.6V52.8L137.7,52.8z M81.5,133.8l36.7-20.8V71.4L81.5,50.6L44.8,71.4V113
		L81.5,133.8L81.5,133.8z M73.9,92.2c0,4.4-3.6,8-8,8c-4.4,0-8-3.6-8-8c0-4.4,3.6-8,8-8C70.3,84.1,73.9,87.8,73.9,92.2L73.9,92.2z
		 M89.1,92.2c0-4.4,3.6-8,8-8c4.4,0,8,3.6,8,8c0,4.4-3.6,8-8,8C92.7,100.2,89.1,96.6,89.1,92.2L89.1,92.2z M74.7,23.3l0-21.3
		L56.2,12.7L74.7,23.3L74.7,23.3z M6.8,144.1l18.4,10.6v-21.3L6.8,144.1L6.8,144.1z M0,74.3l18.4-10.6L0,53V74.3L0,74.3z
		 M106.7,171.7l-18.4-10.6v21.3L106.7,171.7L106.7,171.7z M163,110.1l-18.4,10.6l18.4,10.6V110.1L163,110.1z"/>
</g>
</svg>
